<?xml version="1.0" standalone="no"?>
<!DOCTYPE svg PUBLIC "-//W3C//DTD SVG 20010904//EN"
 "http://www.w3.org/TR/2001/REC-SVG-20010904/DTD/svg10.dtd">
<svg version="1.0" xmlns="http://www.w3.org/2000/svg"
 width="444.000000pt" height="450.000000pt" viewBox="0 0 444.000000 450.000000"
 preserveAspectRatio="xMidYMid meet">

<g transform="translate(0.000000,450.000000) scale(0.100000,-0.100000)"
fill="#000000" stroke="none">
<path d="M3418 3743 c7 -3 16 -2 19 1 4 3 -2 6 -13 5 -11 0 -14 -3 -6 -6z"/>
<path d="M3188 3675 c-2 -19 0 -35 4 -35 4 0 8 16 8 35 0 19 -2 35 -4 35 -2 0
-6 -16 -8 -35z"/>
<path d="M3079 3498 c-1 -18 -1 -63 -1 -100 0 -37 -3 -67 -7 -66 -3 0 -10 -1
-16 -2 -5 -1 -23 -3 -40 -3 -26 -2 -30 -6 -33 -32 -3 -29 -2 -30 70 -48 78
-19 168 -23 168 -8 0 5 -6 12 -12 14 -10 4 -10 6 -1 6 6 1 15 -3 18 -9 3 -5
16 -9 28 -9 19 1 19 2 3 6 -13 4 -15 7 -7 13 10 6 10 12 0 28 -10 16 -16 18
-26 10 -10 -8 -12 -6 -9 13 2 13 8 23 13 22 5 -1 10 40 12 91 l2 93 -32 7
c-17 3 -35 6 -40 6 -5 0 -9 -58 -9 -130 0 -71 -3 -130 -7 -129 -25 2 -48 18
-49 35 0 10 -1 65 -2 122 -1 60 -6 102 -12 102 -5 0 -11 -15 -11 -32z"/>
<path d="M2832 3495 c-7 -14 -15 -45 -18 -68 -4 -23 -11 -45 -17 -48 -5 -4 0
-10 13 -14 26 -8 118 4 103 13 -5 4 -12 16 -16 27 -29 100 -49 126 -65 90z"/>
<path d="M3290 3380 c0 -126 1 -131 23 -139 12 -5 27 -6 32 -3 6 3 7 2 3 -3
-7 -8 18 -30 99 -88 l53 -37 -1 38 c0 20 3 101 7 178 8 162 18 145 -101 164
-38 6 -80 13 -92 16 -23 4 -23 4 -23 -126z m195 -30 c3 -5 1 -10 -4 -10 -6 0
-11 5 -11 10 0 6 2 10 4 10 3 0 8 -4 11 -10z m-22 -77 c-7 -2 -13 -10 -13 -17
0 -9 -9 -12 -25 -8 -14 2 -22 8 -20 13 3 4 13 5 22 2 11 -4 14 -3 9 5 -5 8 1
12 16 11 13 0 17 -3 11 -6z"/>
<path d="M3567 3447 c-3 -8 -2 -29 3 -48 4 -19 8 -28 9 -21 1 6 5 12 10 12 14
0 0 -41 -15 -47 -10 -4 -14 -22 -13 -62 1 -46 3 -51 9 -26 4 17 8 26 9 20 1
-5 6 -3 12 5 8 12 9 9 5 -12 l-6 -28 35 36 c20 19 35 41 34 47 -5 44 1 57 31
57 17 0 30 -4 30 -10 0 -15 77 -32 97 -22 10 5 28 8 41 6 12 -2 22 0 22 5 0 5
9 7 20 4 10 -3 19 -8 18 -12 -3 -26 3 -31 23 -20 17 9 23 8 30 -2 6 -9 9 -1 9
24 0 21 -5 40 -12 42 -16 6 -365 65 -383 65 -7 0 -15 -6 -18 -13z m58 -87 c-3
-5 -10 -10 -16 -10 -5 0 -9 5 -9 10 0 6 7 10 16 10 8 0 12 -4 9 -10z"/>
<path d="M2938 3373 c7 -3 16 -2 19 1 4 3 -2 6 -13 5 -11 0 -14 -3 -6 -6z"/>
<path d="M3271 3220 c-1 -17 17 -40 31 -40 4 0 8 7 8 15 0 8 -6 15 -14 15 -8
0 -17 6 -19 13 -4 8 -6 7 -6 -3z"/>
<path d="M3300 3174 c-27 -14 -29 -22 -37 -124 l-5 -65 26 24 c17 16 24 32 22
46 -3 14 3 26 16 34 11 7 17 8 13 2 -3 -7 2 -11 14 -11 16 0 21 -6 21 -28 0
-16 11 -42 25 -58 30 -35 32 -60 5 -60 -11 0 -20 4 -20 8 0 4 -10 8 -23 8 -12
0 -28 9 -35 20 -11 18 -10 20 10 20 17 0 19 3 10 12 -14 14 -45 -9 -38 -29 3
-8 -2 -13 -14 -13 -15 0 -18 -6 -15 -32 5 -37 32 -98 44 -98 5 0 12 -21 16
-46 3 -25 9 -44 11 -41 3 3 17 -1 31 -8 15 -8 31 -11 36 -8 6 3 7 38 3 85 -4
54 -3 77 4 73 5 -3 10 -42 10 -86 0 -59 3 -79 13 -79 8 0 19 11 25 25 15 32
16 122 2 130 -5 3 -9 18 -9 33 1 15 3 20 6 10 2 -9 11 -19 20 -22 11 -4 14 -2
9 9 -3 8 -1 15 4 15 6 0 10 5 10 10 0 6 -7 10 -16 10 -8 0 -12 5 -9 10 4 6 10
8 15 5 13 -8 17 16 8 54 -4 20 -10 48 -13 62 -5 28 -97 98 -103 79 -2 -5 -15
2 -30 15 -30 28 -28 28 -62 9z m0 -24 c0 -5 -5 -10 -11 -10 -5 0 -7 5 -4 10 3
6 8 10 11 10 2 0 4 -4 4 -10z m112 -82 c-2 -11 -8 -16 -11 -11 -3 4 -17 21
-31 36 l-25 29 36 -17 c28 -13 35 -22 31 -37z m-12 -49 c0 -6 -4 -7 -10 -4 -5
3 -10 11 -10 16 0 6 5 7 10 4 6 -3 10 -11 10 -16z m67 -171 c-3 -8 -6 -5 -6 6
-1 11 2 17 5 13 3 -3 4 -12 1 -19z"/>
<path d="M4277 3073 l-58 -78 46 -10 46 -10 -45 -60 c-25 -33 -46 -63 -46 -67
0 -5 28 -7 63 -6 l62 1 -50 6 c-59 7 -60 13 -5 85 22 29 40 56 40 59 0 4 -20
7 -45 7 -25 0 -45 3 -45 6 0 3 19 31 43 62 46 60 60 82 55 82 -2 0 -30 -35
-61 -77z"/>
<path d="M3561 3124 c0 -11 3 -14 6 -6 3 7 2 16 -1 19 -3 4 -6 -2 -5 -13z"/>
<path d="M3562 3028 c-1 -45 2 -68 11 -72 6 -3 -3 -3 -20 0 -38 5 -42 -5 -13
-31 27 -24 29 -128 3 -159 -16 -18 -16 -19 -1 -8 15 12 21 7 48 -42 18 -31 38
-56 45 -56 23 0 28 75 9 138 -9 31 -22 63 -28 71 -13 17 -15 18 88 -44 77 -46
135 -62 143 -39 2 7 -9 15 -24 19 -27 6 -153 73 -153 81 0 2 36 -15 81 -37 62
-31 84 -38 93 -29 8 8 6 15 -9 26 -24 18 -113 45 -159 48 -18 2 -46 11 -63 21
-24 14 -29 23 -27 46 2 16 -1 29 -6 29 -5 0 -11 24 -13 53 -3 49 -3 49 -5 -15z"/>
<path d="M3327 3064 c6 -15 23 -19 23 -5 0 5 -7 11 -14 14 -10 4 -13 1 -9 -9z"/>
<path d="M3356 2975 c-11 -8 -15 -15 -9 -15 19 0 43 12 43 21 0 13 -12 11 -34
-6z"/>
<path d="M3627 2929 c7 -7 15 -10 18 -7 3 3 -2 9 -12 12 -14 6 -15 5 -6 -5z"/>
<path d="M3262 2760 c0 -19 2 -27 5 -17 2 9 2 25 0 35 -3 9 -5 1 -5 -18z"/>
<path d="M4262 2734 c-30 -20 -51 -38 -48 -41 3 -4 14 1 24 10 10 10 22 17 25
17 4 0 7 -31 7 -69 0 -67 -1 -70 -32 -90 -18 -11 -28 -21 -23 -21 12 0 115 68
115 76 0 4 -11 -1 -25 -10 l-25 -16 0 69 c0 64 2 71 28 90 46 35 10 23 -46
-15z"/>
<path d="M3290 2739 c0 -11 27 -12 34 -1 2 4 -4 9 -15 9 -10 1 -19 -2 -19 -8z"/>
<path d="M2835 2672 c-201 -70 -355 -295 -355 -521 0 -193 88 -305 240 -305
219 0 435 268 434 539 -1 117 -27 188 -89 243 -71 62 -140 75 -230 44z m192
-35 c47 -32 58 -60 57 -146 0 -97 -29 -192 -100 -336 -84 -171 -182 -278 -266
-291 -49 -8 -122 25 -148 68 -53 88 2 314 130 529 51 86 147 185 192 198 44
13 96 4 135 -22z"/>
<path d="M2280 2578 c-69 -11 -129 -24 -135 -30 -7 -7 7 -8 43 -3 l52 7 0
-189 0 -189 -182 -27 c-101 -15 -189 -27 -195 -27 -10 0 -13 45 -13 189 l0
188 45 6 c44 4 63 12 54 21 -2 2 -69 -7 -149 -20 -80 -13 -149 -24 -153 -24
-5 0 -6 -4 -3 -8 3 -5 26 -6 51 -2 l45 7 0 -403 0 -403 -50 -7 c-27 -4 -50
-10 -50 -15 0 -12 8 -12 165 16 77 13 141 25 143 25 1 0 2 4 2 9 0 4 -19 5
-42 0 -24 -4 -46 -8 -50 -9 -5 0 -8 91 -8 203 l0 203 178 28 c97 15 185 30
195 32 16 5 17 -9 17 -199 l0 -204 -50 -7 c-27 -4 -50 -11 -50 -17 0 -5 10 -7
23 -4 12 2 78 14 147 26 68 11 127 22 129 25 10 10 -7 12 -46 4 l-43 -7 0 398
0 398 45 7 c25 3 45 10 45 15 0 11 -8 11 -160 -13z"/>
<path d="M3665 2590 c3 -5 8 -10 11 -10 2 0 4 5 4 10 0 6 -5 10 -11 10 -5 0
-7 -4 -4 -10z"/>
<path d="M3261 2506 c1 -30 4 -39 6 -23 4 23 7 26 18 17 8 -7 43 -16 77 -21
35 -5 88 -14 118 -19 30 -6 64 -12 75 -14 13 -2 20 -10 19 -24 0 -12 3 -22 8
-22 4 0 8 9 8 19 0 14 9 20 33 23 17 3 40 8 50 13 16 7 18 3 14 -33 l-4 -41
41 -6 c23 -3 74 -13 114 -22 59 -12 76 -13 85 -3 9 10 8 12 -5 7 -10 -4 -18
-2 -18 4 0 6 -9 8 -20 4 -11 -4 -20 -3 -19 2 6 37 -2 53 -29 53 -31 0 -72 36
-72 63 0 10 -8 17 -20 17 -11 0 -20 4 -20 8 0 5 -7 17 -15 28 -14 18 -14 17
-5 -9 11 -32 5 -51 -13 -40 -7 4 -32 9 -56 10 -25 2 -50 8 -56 13 -6 5 -21 7
-33 3 -12 -3 -30 -2 -39 2 -10 4 -31 9 -48 11 -43 5 -68 10 -85 17 -8 3 -36 7
-62 10 l-48 5 1 -52z"/>
<path d="M4262 2485 c-53 -36 -75 -62 -24 -30 71 47 96 65 87 65 -6 0 -34 -16
-63 -35z"/>
<path d="M3518 2413 c7 -3 16 -2 19 1 4 3 -2 6 -13 5 -11 0 -14 -3 -6 -6z"/>
<path d="M4276 2345 c-50 -34 -86 -66 -56 -50 14 8 100 64 109 72 2 1 2 5 0 7
-2 2 -26 -11 -53 -29z"/>
<path d="M3970 2351 c0 -5 -8 -12 -17 -14 -14 -4 -12 -5 5 -6 13 -1 22 5 22
14 0 8 -2 15 -5 15 -3 0 -5 -4 -5 -9z"/>
<path d="M4268 2189 l-58 -40 2 -57 2 -57 3 57 4 56 54 33 c30 18 55 37 55 41
0 11 2 12 -62 -33z"/>
<path d="M1280 2125 c0 -14 4 -25 9 -25 4 0 38 -20 75 -44 61 -42 66 -43 65
-23 0 16 -20 34 -75 69 -73 47 -74 47 -74 23z"/>
<path d="M1281 1957 c0 -16 19 -34 75 -69 69 -44 74 -46 73 -25 0 16 -19 34
-75 69 -69 44 -74 46 -73 25z"/>
<path d="M1296 1834 c-9 -8 -16 -22 -16 -30 0 -13 2 -13 16 0 14 14 18 14 44
1 15 -8 42 -31 59 -52 17 -21 31 -34 31 -30 0 16 -33 73 -58 100 -29 31 -53
34 -76 11z"/>
<path d="M2823 1791 c-144 -25 -265 -50 -270 -55 -5 -5 12 -6 40 -2 l47 7 0
-338 c0 -186 -3 -362 -6 -391 -6 -46 -10 -53 -33 -58 -40 -8 -70 -22 -50 -23
41 -2 593 118 600 131 13 19 11 221 -1 213 -5 -3 -10 -25 -10 -48 0 -47 -27
-113 -56 -139 -32 -29 -104 -56 -204 -78 -52 -11 -106 -23 -119 -26 l-24 -5 7
193 c4 106 9 194 11 196 2 2 32 8 68 15 85 14 112 -1 124 -70 l8 -48 6 65 c10
98 10 240 0 240 -4 0 -11 -20 -13 -45 -10 -82 -48 -115 -150 -130 l-48 -7 0
186 c0 184 0 186 23 191 87 20 208 33 242 25 52 -12 85 -47 92 -98 3 -23 10
-42 16 -42 6 0 7 15 3 38 -3 20 -6 63 -6 95 0 48 -3 57 -17 56 -10 -1 -136
-22 -280 -48z"/>
<path d="M2366 1714 c-38 -7 -70 -15 -71 -16 -1 -2 -51 -150 -111 -330 -74
-223 -111 -322 -117 -312 -5 8 -53 135 -109 282 -55 147 -104 271 -109 276 -8
9 -111 -3 -186 -21 -42 -10 -24 -20 20 -12 23 4 45 8 50 9 9 0 8 -676 -1 -740
-7 -44 -20 -58 -76 -75 -10 -3 -16 -8 -13 -11 8 -8 217 29 217 39 0 5 -17 6
-39 2 -73 -12 -71 -20 -70 378 0 194 3 348 5 342 3 -5 62 -158 132 -338 70
-181 131 -329 136 -330 5 -1 67 171 137 382 70 211 131 386 134 390 4 3 4
-164 0 -371 -5 -220 -4 -378 1 -378 5 0 47 7 94 16 93 18 138 40 58 29 l-48
-7 0 390 c0 423 -3 402 53 402 12 0 29 5 37 10 22 14 -39 11 -124 -6z"/>
<path d="M1294 1704 c3 -9 6 -20 6 -24 0 -5 14 -25 31 -45 32 -36 65 -45 87
-23 19 19 14 26 -13 20 -20 -3 -35 5 -71 41 -25 26 -43 39 -40 31z"/>
<path d="M1282 1595 c0 -22 2 -32 5 -22 3 10 9 14 16 10 9 -5 9 -3 1 8 -6 8
-14 21 -17 29 -3 8 -5 -3 -5 -25z"/>
<path d="M3603 1495 c0 -33 2 -45 4 -27 2 18 2 45 0 60 -2 15 -4 0 -4 -33z"/>
<path d="M3663 1480 c0 -30 2 -43 4 -27 2 15 2 39 0 55 -2 15 -4 2 -4 -28z"/>
<path d="M1353 1512 c-35 -2 -63 -6 -63 -10 0 -4 11 -20 25 -37 14 -16 23 -23
20 -15 -4 12 4 15 45 13 46 -2 50 0 50 22 0 30 -2 31 -77 27z"/>
<path d="M3713 1470 c0 -30 2 -43 4 -27 2 15 2 39 0 55 -2 15 -4 2 -4 -28z"/>
<path d="M3883 1435 c0 -33 2 -45 4 -27 2 18 2 45 0 60 -2 15 -4 0 -4 -33z"/>
<path d="M3913 1430 c0 -30 2 -43 4 -27 2 15 2 39 0 55 -2 15 -4 2 -4 -28z"/>
<path d="M1281 1397 c0 -29 149 -127 149 -99 0 10 -7 27 -16 38 -8 10 -12 12
-8 4 4 -8 -22 7 -59 33 -61 42 -67 44 -66 24z"/>
<path d="M1290 1263 c0 -11 29 -37 70 -65 59 -40 70 -44 70 -29 0 13 -24 36
-65 65 -36 25 -68 46 -70 46 -3 0 -5 -8 -5 -17z"/>
<path d="M1350 1142 c0 -10 22 -32 32 -32 5 0 3 9 -4 20 -13 20 -28 27 -28 12z"/>
<path d="M1291 1125 c-1 -11 9 -26 22 -34 21 -13 21 -13 6 5 -9 10 -19 26 -22
34 -4 11 -6 9 -6 -5z"/>
<path d="M1416 1055 c-17 -13 -18 -15 -2 -21 20 -8 29 -1 24 20 -3 13 -6 13
-22 1z"/>
</g>
</svg>
