<svg width="178" height="228" viewBox="0 0 178 228" fill="none" xmlns="http://www.w3.org/2000/svg">
<g clip-path="url(#clip0_3838_44902)">
<path d="M146.784 95.9805L123.501 114.552L118.883 118.263L89.2729 141.873L59.3258 118.115L54.665 114.405L31.4454 95.9805H0.992188V225.541H31.572V135.38L49.245 148.555L54.7705 152.666L81.9338 172.903H96.6331L123.185 153.109L128.689 149.019L146.995 135.38V225.541H177.554V95.9805H146.784Z" fill="#212121"/>
</g>
<path d="M89.2124 96.0547L88.2579 98.1057L87.3034 96.0547L51.207 113.122V227.048H56.6988V116.646L88.2579 101.719L119.824 116.646V227.048H125.309V113.122L89.2124 96.0547Z" fill="#D6AE21"/>
<path d="M85.3636 99.1497C83.7839 91.7878 74.2927 89.1391 65.924 86.8029C63.0067 85.9879 60.2507 85.2137 57.9451 84.2697C48.4807 80.4054 37.7527 76.0249 31.7299 65.5118C27.8043 58.6592 27.811 49.776 31.7366 42.8895C35.279 36.689 41.2615 33.2321 48.3396 33.6192C61.3195 34.2712 71.772 45.5721 80.2818 68.1604C82.6345 74.4085 84.846 80.7721 86.8491 87.0678C87.1986 88.1612 87.7364 89.3633 88.2876 90.6061C89.4169 93.1529 90.5797 95.7948 90.7747 98.3415L85.3568 99.1429L85.3636 99.1497ZM47.3515 39.1407C41.1405 39.1407 37.8871 43.2291 36.4957 45.6672C33.5246 50.8627 33.5179 57.5658 36.4822 62.7341C41.564 71.6037 50.9409 75.4273 60.0087 79.1354C62.0186 79.9571 64.6267 80.6838 67.3893 81.458C71.7585 82.6737 76.6252 84.0388 80.8062 86.212C79.0517 80.8468 77.1562 75.4544 75.1598 70.1367C67.5103 49.8236 58.6509 39.6908 48.0707 39.1542L47.3582 39.1339L47.3515 39.1407Z" fill="#D6AE21"/>
<path d="M92.1873 99.148L86.7695 98.3466C86.9645 95.793 88.1341 93.1512 89.2633 90.5976C89.8078 89.3615 90.3456 88.1663 90.6951 87.0728C92.7251 80.7161 94.9366 74.3525 97.2624 68.1655C105.772 45.5772 116.225 34.2763 129.205 33.6243C136.249 33.2576 142.272 36.694 145.814 42.9082C149.74 49.7947 149.74 58.6643 145.814 65.5168C139.778 76.0436 129.057 80.4172 119.599 84.2748C117.293 85.2188 114.538 85.9862 111.62 86.8012C103.252 89.1442 93.7603 91.7929 92.1739 99.1548L92.1873 99.148ZM130.193 39.1389L129.48 39.1593C118.907 39.689 110.047 49.8286 102.398 70.1418C100.415 75.4052 98.5193 80.8044 96.7515 86.2103C100.932 84.0371 105.799 82.672 110.168 81.4563C112.931 80.6821 115.539 79.9554 117.549 79.1337C126.61 75.4323 135.98 71.6088 141.069 62.7324C144.033 57.5709 144.033 50.8677 141.062 45.6723C139.677 43.2274 136.41 39.1389 130.193 39.1389Z" fill="#D6AE21"/>
<defs>
<clipPath id="clip0_3838_44902">
<rect width="177.553" height="225.54" fill="white"/>
</clipPath>
</defs>
</svg>
