<svg width="33" height="36" viewBox="0 0 33 36" fill="none" xmlns="http://www.w3.org/2000/svg">
<path d="M16.6718 11.5625L16.4951 11.9422L16.3185 11.5625L9.63672 14.7217V35.8104H10.6533V15.3742L16.4951 12.611L22.3383 15.3742V35.8104H23.3536V14.7217L16.6718 11.5625Z" fill="#212121"/>
<path d="M15.9568 12.1357C15.6644 10.7729 13.9075 10.2826 12.3584 9.85019C11.8183 9.69933 11.3082 9.55602 10.8814 9.38127C9.12947 8.66595 7.14361 7.85509 6.02874 5.90902C5.30209 4.64055 5.30333 2.9962 6.02999 1.72145C6.68572 0.573671 7.79312 -0.066219 9.10334 0.00543859C11.506 0.126125 13.4409 2.21802 15.0161 6.39931C15.4516 7.55589 15.861 8.73384 16.2318 9.89922C16.2965 10.1016 16.396 10.3241 16.4981 10.5542C16.7071 11.0256 16.9223 11.5147 16.9584 11.9861L15.9555 12.1344L15.9568 12.1357ZM8.92043 1.0275C7.77073 1.0275 7.1685 1.78431 6.91093 2.23562C6.36096 3.19734 6.35972 4.43815 6.90845 5.39484C7.84911 7.03668 9.58487 7.74446 11.2634 8.43087C11.6354 8.58298 12.1182 8.7175 12.6296 8.86081C13.4384 9.08584 14.3392 9.33853 15.1132 9.74082C14.7884 8.74767 14.4375 7.74949 14.068 6.76514C12.652 3.005 11.0121 1.12933 9.05357 1.03002L8.92168 1.02624L8.92043 1.0275Z" fill="#212121"/>
<path d="M17.2216 12.1378L16.2188 11.9895C16.2548 11.5168 16.4713 11.0278 16.6804 10.5551C16.7812 10.3263 16.8807 10.105 16.9454 9.90261C17.3212 8.72592 17.7305 7.54797 18.1611 6.40271C19.7363 2.22142 21.6712 0.129524 24.0738 0.00883735C25.3778 -0.0590488 26.4927 0.57707 27.1484 1.72736C27.8751 3.00211 27.8751 4.64395 27.1484 5.91242C26.0311 7.861 24.0465 8.67061 22.2958 9.38467C21.869 9.55941 21.3588 9.70147 20.8188 9.85233C19.2697 10.286 17.5128 10.7763 17.2191 12.1391L17.2216 12.1378ZM24.2568 1.02964L24.1249 1.03342C22.1676 1.13147 20.5277 3.0084 19.1117 6.76854C18.7446 7.74283 18.3937 8.74226 18.0665 9.74296C18.8404 9.34067 19.7413 9.08798 20.5501 8.86295C21.0615 8.71964 21.5442 8.58512 21.9163 8.43301C23.5936 7.74786 25.3281 7.04008 26.27 5.39699C26.8187 4.44155 26.8187 3.20074 26.2687 2.23902C26.0124 1.78645 25.4077 1.02964 24.2568 1.02964Z" fill="#212121"/>
<path d="M27.249 11.2383L22.8974 14.7094L22.0342 15.4029L16.5 19.8157L10.9028 15.3753L10.0317 14.6819L5.69183 11.2383H0V35.4536H5.71548V18.6022L9.01863 21.0647L10.0514 21.833L15.1283 25.6154H17.8757L22.8383 21.9157L23.8671 21.1514L27.2885 18.6022V35.4536H33V11.2383H27.249Z" fill="#212121"/>
</svg>
