<svg width="46" height="45" viewBox="0 0 46 45" fill="none" xmlns="http://www.w3.org/2000/svg">
<ellipse cx="23.1706" cy="22.4974" rx="22.6667" ry="22.3333" fill="#212121"/>
<path d="M21.4221 13.5C20.3393 13.5006 19.2717 13.7649 18.3052 14.2717C17.3387 14.7785 16.5002 15.5137 15.8571 16.4181C15.214 17.3225 14.7842 18.371 14.6023 19.4792C14.4204 20.5874 14.4914 21.7244 14.8097 22.799C15.128 23.8735 15.6846 24.8555 16.4348 25.6661C17.1851 26.4767 18.108 27.0932 19.1295 27.4661C20.151 27.8391 21.2425 27.958 22.3162 27.8134C23.39 27.6688 24.4162 27.2646 25.3122 26.6334L29.5899 31.0711C29.7087 31.2035 29.852 31.3097 30.0112 31.3833C30.1704 31.457 30.3422 31.4966 30.5165 31.4998C30.6908 31.503 30.8639 31.4697 31.0255 31.4019C31.1871 31.3342 31.3339 31.2333 31.4571 31.1053C31.5803 30.9774 31.6775 30.825 31.7428 30.6572C31.8081 30.4894 31.8401 30.3097 31.837 30.1287C31.834 29.9478 31.7958 29.7694 31.7249 29.6041C31.6539 29.4388 31.5517 29.2901 31.4242 29.1667L27.1499 24.7254C27.857 23.6449 28.2671 22.3847 28.3361 21.0803C28.405 19.7759 28.1302 18.4766 27.5411 17.3223C26.9521 16.1679 26.0712 15.2021 24.993 14.5286C23.9149 13.8551 22.6803 13.4995 21.4221 13.5ZM17.0959 20.6866C17.0959 19.4953 17.5517 18.3529 18.363 17.5105C19.1743 16.6682 20.2747 16.195 21.4221 16.195C22.5694 16.195 23.6698 16.6682 24.4811 17.5105C25.2924 18.3529 25.7482 19.4953 25.7482 20.6866C25.7482 21.8778 25.2924 23.0203 24.4811 23.8626C23.6698 24.7049 22.5694 25.1782 21.4221 25.1782C20.2747 25.1782 19.1743 24.7049 18.363 23.8626C17.5517 23.0203 17.0959 21.8778 17.0959 20.6866Z" fill="white"/>
</svg>
